<?xml version="1.0" encoding="utf-8"?>
<!DOCTYPE svg PUBLIC "-//W3C//DTD SVG 1.1//EN" "http://www.w3.org/Graphics/SVG/1.1/DTD/svg11.dtd">
<svg version="1.1" xmlns="http://www.w3.org/2000/svg" xmlns:xlink="http://www.w3.org/1999/xlink" viewBox="0 0 2000 2520">
	<linearGradient id="yellow-gradient" gradientUnits="userSpaceOnUse" x1="339.1272" y1="227.3188" x2="841.6033" y2="92.6807">
		<stop  offset="0" style="stop-color:#E8621A"/>
		<stop  offset="0.5066" style="stop-color:#F29230"/>
		<stop  offset="1" style="stop-color:#FCEE21"/>
	</linearGradient>
	<linearGradient id="purple-gradient" gradientUnits="userSpaceOnUse" x1="297.3333" y1="168.1499" x2="822.6667" y2="168.1499">
		<stop  offset="0" style="stop-color:#5A1E70"/>
		<stop  offset="0.5" style="stop-color:#A83D5A"/>
		<stop  offset="1" style="stop-color:#E75816"/>
	</linearGradient>
	<view id="vinci" viewBox="0 1920 1000 320"></view>
	<view id="koopgarantfonds" viewBox="0 1280 2000 640"></view>
	<view id="woningfonds" viewBox="0 640 2000 640"></view>
	<view id="stichting" viewBox="0 0 2000 640"></view>
	<g transform="translate(0,1920)">
		<rect x="272" y="105.008" fill="#FFFFFF" width="45" height="211"/>
		<rect x="769" y="105.008" fill="#FFFFFF" width="45" height="211"/>
		<path fill="#FFFFFF" d="M294,13.008c-18.5,0-28,10.5-28,28s10,28,28,28s28-10.5,28-28S312.5,13.008,294,13.008z"/>
		<path fill="#FFFFFF" d="M790,13.008c-18.5,0-28,10.5-28,28s10,28,28,28s28-10.5,28-28S808.5,13.008,790,13.008z"/>
		<polygon fill="#FFFFFF" points="140.619,260.225 82,105.008 32,105.008 113,316.008 163,316.008 240,105.008 195,105.008 	"/>
		<path fill="#FFFFFF" d="M451.5,97.008c-52.833,0-95.5,19-95.5,49c0,23.667,0,170,0,170h44c0,0,0-151.333,0-159
			c0-7.667,16-19,51.5-19s47.5,10.667,47.5,18c0,7.333,0,160,0,160h44c0,0,0-151,0-171C543,116.008,504.333,97.008,451.5,97.008z"/>
		<path fill="#FFFFFF" d="M640,145.008c22.333-14,84-1,84-1s6.886-27.774,9-36c-37.5-7.333-95.333-8.333-119,7
			c-23.667,15.333-38,39.667-38,95.5c0,55.833,21.333,84.5,42,98.5s60,17,103,10c0.667-4,6-39,6-39s-66,11.333-86-1
			c-20-12.333-24.124-39.333-24.124-68.5C616.876,181.342,617.667,159.008,640,145.008z"/>
	</g>
	<g transform="translate(0,1280)">
		<path fill="url(#yellow-gradient)" d="M622.667,266.008l-32-41.333L568,247.342l55.333,71c0,0,189.333-282.333,199.333-296.333
			c-41.301-3.902-84.667-8-129.333,3.333c-44.667,11.333-73.74,31.252-84.667,48.667c-21.333,34-80.044,126.215-95.217,150.061
			c-15.173,23.846-45.45,19.939-55.098,8.808c-9.648-11.131-98.229-131.237-98.229-131.237s42.544,1.685,63.997,2.5
			c21.451,0.814,48.711,27.038,41.881,19.869c5.322,5.586,40.332,42.332,40.332,42.332l22.333-21c0,0-27.482-28.602-40.55-42.201
			S446,75.342,409.333,74.008c-36.667-1.333-112-2.667-112-2.667S421.27,236.056,434.12,253.133
			c6.818,9.061,29.214,20.209,57.88,16.876c28.667-3.333,42.836-23.002,47.114-30.375c9.114-15.708,81.367-129.248,93.489-148.504
			c12.122-19.256,66.73-47.788,136.815-43.422C764.837,50.739,622.667,266.008,622.667,266.008z"/>
		<rect x="272" y="375.008" fill="#F18D2B" width="45" height="211"/>
		<rect x="769" y="375.008" fill="#F18D2B" width="45" height="211"/>
		<path fill="#F18D2B" d="M294,283.008c-18.5,0-28,10.5-28,28s10,28,28,28s28-10.5,28-28S312.5,283.008,294,283.008z"/>
		<path fill="#F18D2B" d="M790,283.008c-18.5,0-28,10.5-28,28s10,28,28,28s28-10.5,28-28S808.5,283.008,790,283.008z"/>
		<polygon fill="#F18D2B" points="140.619,530.225 82,375.008 32,375.008 113,586.008 163,586.008 240,375.008 195,375.008 	"/>
		<path fill="#F18D2B" d="M451.5,367.008c-52.833,0-95.5,19-95.5,49c0,23.667,0,170,0,170h44c0,0,0-151.333,0-159
			c0-7.667,16-19,51.5-19s47.5,10.667,47.5,18c0,7.333,0,160,0,160h44c0,0,0-151,0-171C543,386.008,504.333,367.008,451.5,367.008z"
			/>
		<path fill="#F18D2B" d="M640,415.008c22.333-14,84-1,84-1s6.886-27.774,9-36c-37.5-7.333-95.333-8.333-119,7
			c-23.667,15.333-38,39.667-38,95.5s21.333,84.5,42,98.5s60,17,103,10c0.667-4,6-39,6-39s-66,11.333-86-1
			c-20-12.333-24.124-39.333-24.124-68.5C616.876,451.342,617.667,429.008,640,415.008z"/>
		<path fill="#F18D2B" d="M953.658,550.282l-7.183,7.382v23.478h-16.162V478.985h16.162v58.926l24.94-28.731h19.42L964.1,539.175
			l29.596,41.967h-18.689L953.658,550.282z"/>
		<path fill="#F18D2B" d="M998.351,544.496c0-24.654,16.292-36.646,33.387-36.646c17.095,0,33.52,11.467,33.52,36.646
			c0,25.179-14.599,37.976-33.387,37.976C1013.083,582.472,998.351,569.15,998.351,544.496z M1031.871,569.569
			c12.629,0,17.293-11.215,17.293-24.409c0-13.194-5.688-24.342-17.426-24.342s-17.225,11.164-17.225,24.677
			S1019.242,569.569,1031.871,569.569z"/>
		<path fill="#F18D2B" d="M1075.9,544.496c0-24.654,16.292-36.646,33.387-36.646s33.52,11.467,33.52,36.646
			c0,25.179-14.599,37.976-33.387,37.976S1075.9,569.15,1075.9,544.496z M1109.42,569.569c12.629,0,17.293-11.215,17.293-24.409
			c0-13.194-5.688-24.342-17.426-24.342s-17.225,11.164-17.225,24.677S1096.791,569.569,1109.42,569.569z"/>
		<path fill="#F18D2B" d="M1669.949,543.831c0-24.654,16.292-36.646,33.387-36.646s33.52,11.467,33.52,36.646
			c0,25.179-14.599,37.976-33.387,37.976S1669.949,568.485,1669.949,543.831z M1703.469,568.904
			c12.629,0,17.293-11.215,17.293-24.409c0-13.194-5.688-24.342-17.426-24.342s-17.225,11.164-17.225,24.677
			S1690.841,568.904,1703.469,568.904z"/>
		<path fill="#F18D2B" d="M1219.491,545.892c0,25.616-12.991,36.58-27.934,36.58c-9.558,0-16.65-5.254-18.955-7.781v34.119h-16.161
			V509.18h14.897l0.665,7.316c2.306-2.793,7.463-8.646,19.354-8.646C1208,507.85,1219.491,520.276,1219.491,545.892z
			 M1186.836,521.085c-7.836,0-12.903,5.653-14.233,8.18v31.924c1.33,2.527,6.147,8.38,14.366,8.38
			c6.281,0,16.428-4.543,16.428-23.677S1194.672,521.085,1186.836,521.085z"/>
		<path fill="#F18D2B" d="M1230.332,544.629c0-26.621,14.928-36.779,28.798-36.779c12.037,0,16.687,5.658,19.354,8.58l0.731-7.25
			h14.565v69.967c0,21.945-16.314,30.328-32.589,30.328s-25.34-9.733-26.936-11.905l7.648-9.71c2.66,3.148,8.615,8.846,18.355,8.846
			s17.359-5.196,17.359-17.159v-4.855c-2.262,2.527-7.453,7.781-18.623,7.781C1244.917,582.472,1230.332,571.25,1230.332,544.629z
			 M1263.12,569.303c9.13,0,13.079-5.853,14.499-8.38v-31.658c-1.42-2.527-5.203-8.18-14.366-8.18
			c-6.67,0-16.826,4.498-16.826,23.544C1246.427,563.675,1255.074,569.303,1263.12,569.303z"/>
		<path fill="#F18D2B" d="M1421.741,523.945c-15.991-2.937-20.352,5.32-21.549,7.981v49.216h-16.161V509.18h15.43l0.399,8.048
			c1.817-2.927,8.14-11.969,21.947-8.447C1421.808,510.26,1421.741,522.006,1421.741,523.945z"/>
		<path fill="#F18D2B" d="M1472.952,581.142c-0.443-0.842-1.641-5.387-1.862-6.717c-1.063,1.109-7.123,8.047-18.888,8.047
			s-19.849-5.974-22.713-12.969s-3.009-19.602,6.751-26.205s19.885-6.353,34.318-6.119c0-0.796,0-4.722,0-4.722
			c0-6.074-3.34-12.304-12.637-12.304s-12.797,6.229-12.57,9.776h-16.161c0-9.797,9.765-22.081,29.662-22.081
			s27.867,11.409,27.867,24.741v31.924c0,12.806,3.468,15.119,2.727,16.627C1487.5,581.142,1472.952,581.142,1472.952,581.142z
			 M1455.195,569.503c7.93,0,12.242-3.932,15.363-8.58c0,0,0-11.596,0-13.568c-17.121-1.097-26.736,2.228-26.736,11.972
			C1443.822,564.821,1447.266,569.503,1455.195,569.503z"/>
		<path fill="#F18D2B" d="M1353.255,581.142c-0.443-0.842-1.641-5.387-1.862-6.717c-1.063,1.109-7.123,8.047-18.888,8.047
			s-19.849-5.974-22.713-12.969s-3.009-19.602,6.751-26.205s19.885-6.353,34.318-6.119c0-0.796,0-4.722,0-4.722
			c0-6.074-3.34-12.304-12.637-12.304s-12.797,6.229-12.57,9.776h-16.161c0-9.797,9.765-22.081,29.662-22.081
			s27.867,11.409,27.867,24.741v31.924c0,12.806,3.468,15.119,2.727,16.627C1367.803,581.142,1353.255,581.142,1353.255,581.142z
			 M1335.498,569.503c7.93,0,12.242-3.932,15.363-8.58c0,0,0-11.596,0-13.568c-17.121-1.097-26.736,2.228-26.736,11.972
			C1324.125,564.821,1327.568,569.503,1335.498,569.503z"/>
		<path fill="#F18D2B" d="M1518.644,509.18l0.466,8.314c2.527-3.059,9.635-9.644,20.95-9.644s22.879,5.072,22.879,26.803
			s0,46.489,0,46.489h-16.161c0,0,0-37.861,0-46.622s-3.871-13.435-12.637-13.435s-13.103,6.142-14.565,8.845v51.211h-16.161V509.18
			H1518.644z"/>
		<path fill="#F18D2B" d="M1765.521,509.18l0.466,8.314c2.527-3.059,9.635-9.644,20.95-9.644s22.879,5.072,22.879,26.803
			s0,46.489,0,46.489h-16.161c0,0,0-37.861,0-46.622s-3.871-13.435-12.637-13.435s-13.103,6.142-14.565,8.845v51.211h-16.161V509.18
			H1765.521z"/>
		<path fill="#F18D2B" d="M1599.651,491.689v17.491h12.703v11.972h-12.703c0,0,0,31.485,0,40.171s5.599,8.186,13.102,7.116v12.503
			c-1.286,0.354-9.86,2.99-18.057,0.466s-11.207-10.784-11.207-19.154s0-41.102,0-41.102h-11.838V509.18h11.838v-17.491H1599.651z"/>
		<path fill="#F18D2B" d="M1630.377,581.142v-59.99h-10.974V509.18h10.974v-6.784c0-24.054,20.623-27.221,34.318-23.61l-0.399,12.637
			c-9.463-1.914-17.758,0.266-17.758,10.974v6.784h14.632v11.972h-14.632v59.99H1630.377z"/>
		<path fill="#F18D2B" d="M1823.25,544.629c0-26.287,15.215-36.779,28.399-36.779c11.684,0,16.228,5.41,18.489,7.981v-36.845h16.161
			v102.156h-14.632l-0.798-7.449c-2.306,2.793-7.537,8.779-19.354,8.779C1837.667,582.472,1823.25,570.916,1823.25,544.629z
			 M1855.64,569.303c9.027,0,13.124-6.186,14.499-8.846v-30.727c-1.375-2.661-5.594-8.646-14.366-8.646s-16.36,5.831-16.36,23.544
			C1839.412,562.342,1846.613,569.303,1855.64,569.303z"/>
		<path fill="#F18D2B" d="M1943.497,561.589c0-6.08-5.664-7.913-15.363-10.575c-3.799-1.042-7.372-1.796-10.541-2.993
			c-3.171-1.197-15.33-6.033-15.33-18.356c0-12.323,12.196-21.815,27.8-21.815s28.798,8.659,28.798,22.945h-16.161
			c0-6.62-5.574-10.841-12.637-10.841s-12.038,3.662-12.038,9.045s5.675,7.172,7.582,7.814c1.906,0.643,4.807,1.33,7.183,1.896
			c14.544,3.465,26.604,7.396,26.604,22.014c0,14.618-14.203,21.748-29.131,21.748s-30.394-8.963-30.394-24.009h15.695
			c0.103,3.046,2.194,11.905,14.898,11.905C1938.833,570.367,1943.497,567.669,1943.497,561.589z"/>
	</g>
	<g transform="translate(0,640)">
		<path fill="url(#yellow-gradient)" d="M622.667,266.008l-32-41.333L568,247.342l55.333,71c0,0,189.333-282.333,199.333-296.333
			c-41.301-3.902-84.667-8-129.333,3.333c-44.667,11.333-73.74,31.252-84.667,48.667c-21.333,34-80.044,126.215-95.217,150.061
			c-15.173,23.846-45.45,19.939-55.098,8.808c-9.648-11.131-98.229-131.237-98.229-131.237s42.544,1.685,63.997,2.5
			c21.451,0.814,48.711,27.038,41.881,19.869c5.322,5.586,40.332,42.332,40.332,42.332l22.333-21c0,0-27.482-28.602-40.55-42.201
			S446,75.342,409.333,74.008c-36.667-1.333-112-2.667-112-2.667S421.27,236.056,434.12,253.133
			c6.818,9.061,29.214,20.209,57.88,16.876c28.667-3.333,42.836-23.002,47.114-30.375c9.114-15.708,81.367-129.248,93.489-148.504
			c12.122-19.256,66.73-47.788,136.815-43.422C764.837,50.739,622.667,266.008,622.667,266.008z"/>
		<rect x="272" y="375.008" fill="#F18D2B" width="45" height="211"/>
		<rect x="769" y="375.008" fill="#F18D2B" width="45" height="211"/>
		<path fill="#F18D2B" d="M294,283.008c-18.5,0-28,10.5-28,28s10,28,28,28s28-10.5,28-28S312.5,283.008,294,283.008z"/>
		<path fill="#F18D2B" d="M790,283.008c-18.5,0-28,10.5-28,28s10,28,28,28s28-10.5,28-28S808.5,283.008,790,283.008z"/>
		<polygon fill="#F18D2B" points="140.619,530.225 82,375.008 32,375.008 113,586.008 163,586.008 240,375.008 195,375.008 	"/>
		<path fill="#F18D2B" d="M451.5,367.008c-52.833,0-95.5,19-95.5,49c0,23.667,0,170,0,170h44c0,0,0-151.333,0-159
			c0-7.667,16-19,51.5-19s47.5,10.667,47.5,18c0,7.333,0,160,0,160h44c0,0,0-151,0-171C543,386.008,504.333,367.008,451.5,367.008z"
			/>
		<path fill="#F18D2B" d="M640,415.008c22.333-14,84-1,84-1s6.886-27.774,9-36c-37.5-7.333-95.333-8.333-119,7
			c-23.667,15.333-38,39.667-38,95.5s21.333,84.5,42,98.5s60,17,103,10c0.667-4,6-39,6-39s-66,11.333-86-1
			c-20-12.333-24.124-39.333-24.124-68.5C616.876,451.342,617.667,429.008,640,415.008z"/>
		<path fill="#F18D2B" d="M1037.926,544.496c0-24.654,16.292-36.646,33.387-36.646s33.52,11.467,33.52,36.646
			c0,25.179-14.599,37.976-33.387,37.976S1037.926,569.15,1037.926,544.496z M1071.446,569.569c12.629,0,17.293-11.215,17.293-24.409
			c0-13.194-5.688-24.342-17.426-24.342s-17.225,11.164-17.225,24.677S1058.817,569.569,1071.446,569.569z"/>
		<path fill="#F18D2B" d="M1432.784,543.831c0-24.654,16.292-36.646,33.387-36.646s33.52,11.467,33.52,36.646
			c0,25.179-14.599,37.976-33.387,37.976S1432.784,568.485,1432.784,543.831z M1466.304,568.904
			c12.629,0,17.293-11.215,17.293-24.409c0-13.194-5.688-24.342-17.426-24.342s-17.225,11.164-17.225,24.677
			S1453.676,568.904,1466.304,568.904z"/>
		<path fill="#F18D2B" d="M1304.086,544.629c0-26.621,14.928-36.779,28.798-36.779c12.037,0,16.687,5.658,19.354,8.58l0.731-7.25
			h14.565v69.967c0,21.945-16.314,30.328-32.589,30.328s-25.34-9.733-26.936-11.905l7.648-9.71c2.66,3.148,8.615,8.846,18.355,8.846
			s17.359-5.196,17.359-17.159v-4.855c-2.262,2.527-7.453,7.781-18.623,7.781C1318.671,582.472,1304.086,571.25,1304.086,544.629z
			 M1336.875,569.303c9.13,0,13.079-5.853,14.499-8.38v-31.658c-1.42-2.527-5.203-8.18-14.366-8.18
			c-6.67,0-16.826,4.498-16.826,23.544C1320.181,563.675,1328.828,569.303,1336.875,569.303z"/>
		<path fill="#F18D2B" d="M1245.548,509.18l0.466,8.314c2.527-3.059,9.635-9.644,20.95-9.644s22.879,5.072,22.879,26.803
			s0,46.489,0,46.489h-16.161c0,0,0-37.861,0-46.622s-3.871-13.435-12.637-13.435s-13.103,6.142-14.565,8.845v51.211h-16.161V509.18
			H1245.548z"/>
		<path fill="#F18D2B" d="M1134.118,509.18l0.466,8.314c2.527-3.059,9.635-9.644,20.95-9.644s22.879,5.072,22.879,26.803
			s0,46.489,0,46.489h-16.161c0,0,0-37.861,0-46.622s-3.871-13.435-12.637-13.435s-13.103,6.142-14.565,8.845v51.211h-16.161V509.18
			H1134.118z"/>
		<path fill="#F18D2B" d="M1528.356,509.18l0.466,8.314c2.527-3.059,9.635-9.644,20.95-9.644s22.879,5.072,22.879,26.803
			s0,46.489,0,46.489h-16.161c0,0,0-37.861,0-46.622s-3.871-13.435-12.637-13.435s-13.103,6.142-14.565,8.845v51.211h-16.161V509.18
			H1528.356z"/>
		<path fill="#F18D2B" d="M1393.212,581.142v-59.99h-10.974V509.18h10.974v-6.784c0-24.054,20.623-27.221,34.318-23.61l-0.399,12.637
			c-9.463-1.914-17.758,0.266-17.758,10.974v6.784h14.632v11.972h-14.632v59.99H1393.212z"/>
		<path fill="#F18D2B" d="M1586.085,544.629c0-26.287,15.215-36.779,28.399-36.779c11.684,0,16.228,5.41,18.489,7.981v-36.845h16.161
			v102.156h-14.632l-0.798-7.449c-2.306,2.793-7.537,8.779-19.354,8.779C1600.502,582.472,1586.085,570.916,1586.085,544.629z
			 M1618.475,569.303c9.027,0,13.124-6.186,14.499-8.846v-30.727c-1.375-2.661-5.594-8.646-14.366-8.646s-16.36,5.831-16.36,23.544
			C1602.247,562.342,1609.448,569.303,1618.475,569.303z"/>
		<path fill="#F18D2B" d="M1706.332,561.589c0-6.08-5.664-7.913-15.363-10.575c-3.799-1.042-7.372-1.796-10.541-2.993
			c-3.171-1.197-15.33-6.033-15.33-18.356c0-12.323,12.196-21.815,27.8-21.815s28.798,8.659,28.798,22.945h-16.161
			c0-6.62-5.574-10.841-12.637-10.841s-12.038,3.662-12.038,9.045s5.675,7.172,7.582,7.814c1.906,0.643,4.807,1.33,7.183,1.896
			c14.544,3.465,26.604,7.396,26.604,22.014c0,14.618-14.203,21.748-29.131,21.748s-30.394-8.963-30.394-24.009h15.695
			c0.103,3.046,2.194,11.905,14.898,11.905C1701.668,570.367,1706.332,567.669,1706.332,561.589z"/>
		<path fill="#F18D2B" d="M1002.388,559.284l11.532-50.084h15.89l-19.779,72.544h-13.409l-15.555-49.815l-15.286,49.815h-13.41
			L932.526,509.2h15.89l11.733,49.547l14.884-49.547h12.27L1002.388,559.284z"/>
		<path fill="#F18D2B" d="M1195.281,490.36c0-4.352,1.652-8.716,9.186-8.716s9.252,3.567,9.252,8.716s-3.119,8.582-9.252,8.582
			S1195.281,494.712,1195.281,490.36z M1212.578,581.744h-16.291V509.2h16.291V581.744z"/>
	</g>
	<g>
		<path fill="url(#purple-gradient)" d="M622.667,266.008l-32-41.333L568,247.342l55.333,71c0,0,189.333-282.333,199.333-296.333
			c-41.301-3.902-84.667-8-129.333,3.333c-44.667,11.333-73.74,31.252-84.667,48.667c-21.333,34-80.044,126.215-95.217,150.061
			c-15.173,23.846-45.45,19.939-55.098,8.808c-9.648-11.131-98.229-131.237-98.229-131.237s42.544,1.685,63.997,2.5
			c21.451,0.814,48.711,27.038,41.881,19.869c5.322,5.586,40.332,42.332,40.332,42.332l22.333-21c0,0-27.482-28.602-40.55-42.201
			S446,75.342,409.333,74.008c-36.667-1.333-112-2.667-112-2.667S421.27,236.056,434.12,253.133
			c6.818,9.061,29.214,20.209,57.88,16.876c28.667-3.333,42.836-23.002,47.114-30.375c9.114-15.708,81.367-129.248,93.489-148.504
			c12.122-19.256,66.73-47.788,136.815-43.422C764.837,50.739,622.667,266.008,622.667,266.008z"/>
		<rect x="272" y="375.008" fill="#581D70" width="45" height="211"/>
		<rect x="769" y="375.008" fill="#581D70" width="45" height="211"/>
		<path fill="#581D70" d="M294,283.008c-18.5,0-28,10.5-28,28s10,28,28,28s28-10.5,28-28S312.5,283.008,294,283.008z"/>
		<path fill="#581D70" d="M790,283.008c-18.5,0-28,10.5-28,28s10,28,28,28s28-10.5,28-28S808.5,283.008,790,283.008z"/>
		<polygon fill="#581D70" points="140.619,530.225 82,375.008 32,375.008 113,586.008 163,586.008 240,375.008 195,375.008 	"/>
		<path fill="#581D70" d="M451.5,367.008c-52.833,0-95.5,19-95.5,49c0,23.667,0,170,0,170h44c0,0,0-151.333,0-159
			c0-7.667,16-19,51.5-19s47.5,10.667,47.5,18c0,7.333,0,160,0,160h44c0,0,0-151,0-171C543,386.008,504.333,367.008,451.5,367.008z"
			/>
		<path fill="#581D70" d="M640,415.008c22.333-14,84-1,84-1s6.886-27.774,9-36c-37.5-7.333-95.333-8.333-119,7
			c-23.667,15.333-38,39.667-38,95.5s21.333,84.5,42,98.5s60,17,103,10c0.667-4,6-39,6-39s-66,11.333-86-1
			c-20-12.333-24.124-39.333-24.124-68.5C616.876,451.342,617.667,429.008,640,415.008z"/>
		<path fill="#581D70" d="M1033.613,407.037c5.262,0,7.718-4.279,7.718-6.605h8.221c0,4.326-4.11,13.569-15.831,13.569
			s-17.697-8.367-17.697-19.492c0-12.375,5.971-20.784,17.661-20.784s15.867,8.909,15.867,14.646h-8.221
			c0-3.237-2.729-7.646-7.718-7.646c-6.613,0-8.867,5.16-8.867,13.784S1028.352,407.037,1033.613,407.037z"/>
		<path fill="#581D70" d="M1088.572,490.448l8.221-27.785h9.01l-13.461,38.841h-7.574l-13.569-38.841h9.046L1088.572,490.448z"/>
		<path fill="#581D70" d="M1171.997,490.951c0-3.776-4.58-4.692-8.293-5.708c-2.082-0.431-3.979-0.969-5.689-1.616
			c-1.711-0.646-8.274-3.28-8.274-9.908c0-6.628,6.167-11.774,15.005-11.774s15.544,4.979,15.544,12.384h-8.723
			c0-2.238-1.493-5.851-6.821-5.851s-6.497,3.318-6.497,4.882c0,1.564,0.919,3.064,4.093,4.218c1.028,0.347,8.142,2.064,9.925,2.71
			s8.311,2.92,8.311,10.195s-6.536,11.738-15.723,11.738s-16.405-5.464-16.405-12.959h8.472c0,3.245,2.752,6.426,8.041,6.426
			S1171.997,492.977,1171.997,490.951z"/>
		<path fill="#581D70" d="M1058.706,490.951c0-3.776-4.58-4.692-8.293-5.708c-2.082-0.431-3.979-0.969-5.689-1.616
			c-1.711-0.646-8.274-3.28-8.274-9.908c0-6.628,6.167-11.774,15.005-11.774s15.544,4.979,15.544,12.384h-8.723
			c0-2.238-1.493-5.851-6.821-5.851s-6.497,3.318-6.497,4.882c0,1.564,0.919,3.064,4.093,4.218c1.028,0.347,8.142,2.064,9.925,2.71
			s8.311,2.92,8.311,10.195s-6.536,11.738-15.723,11.738s-16.405-5.464-16.405-12.959h8.472c0,3.245,2.752,6.426,8.041,6.426
			S1058.706,492.977,1058.706,490.951z"/>
		<path fill="#581D70" d="M958.265,402.73c0-3.776-4.58-4.692-8.293-5.708c-2.082-0.431-3.979-0.969-5.689-1.616
			c-1.711-0.646-8.274-3.28-8.274-9.908s6.167-11.774,15.005-11.774s15.544,4.979,15.544,12.384h-8.723
			c0-2.238-1.493-5.851-6.821-5.851s-6.497,3.318-6.497,4.882s0.919,3.064,4.093,4.218c1.028,0.347,8.142,2.064,9.925,2.71
			s8.311,2.92,8.311,10.195s-6.536,11.738-15.723,11.738s-16.405-5.464-16.405-12.959h8.472c0,3.245,2.752,6.426,8.041,6.426
			S958.265,404.755,958.265,402.73z"/>
		<path fill="#581D70" d="M1199.1,453.223v9.441h6.855v6.461h-6.855v21.682c0,3.618,1.484,4.701,7.071,3.841v6.749
			c-9.921,2.362-15.795-0.721-15.795-10.087v-22.185h-6.39v-6.461h6.39v-9.441H1199.1z"/>
		<path fill="#581D70" d="M1107.885,365.034v9.441h6.855v6.461h-6.855v21.682c0,3.618,1.484,4.701,7.071,3.841v6.749
			c-9.921,2.362-15.795-0.722-15.795-10.087v-22.185h-6.39v-6.461h6.39v-9.441H1107.885z"/>
		<path fill="#581D70" d="M985.368,365.034v9.441h6.855v6.461h-6.855v21.682c0,3.618,1.484,4.701,7.071,3.841v6.749
			c-9.921,2.362-15.795-0.722-15.795-10.087v-22.185h-6.39v-6.461h6.39v-9.441H985.368z"/>
		<path fill="#581D70" d="M944.696,550.885l0.251,4.056c1.292-1.507,4.555-4.774,11.2-4.774s9.686,3.55,10.662,5.959
			c1.292-1.819,4.81-5.959,11.917-5.959c8.774,0,12.78,5.175,12.78,14.395v25.164h-8.723c0,0,0-20.516,0-25.2
			c0-4.684-1.813-7.215-6.964-7.215s-7.466,4.244-7.466,6.533s0,25.882,0,25.882h-8.723v-25.092c0-4.875-2.163-7.323-7-7.323
			s-6.761,2.956-7.431,4.271v28.144h-8.723v-38.841H944.696z"/>
		<path fill="#581D70" d="M1000.48,540.798c0-2.79,1.899-4.667,4.918-4.667s4.954,2.04,4.954,4.667c0,2.627-1.806,4.595-4.954,4.595
			S1000.48,543.588,1000.48,540.798z M1009.741,589.726h-8.723v-38.841h8.723V589.726z"/>
		<path fill="#581D70" d="M1018.178,452.577c0-2.79,1.899-4.667,4.918-4.667c3.019,0,4.954,2.04,4.954,4.667
			c0,2.627-1.806,4.595-4.954,4.595S1018.178,455.366,1018.178,452.577z M1027.439,501.504h-8.723v-38.841h8.723V501.504z"/>
		<path fill="#581D70" d="M998.901,364.356c0-2.79,1.899-4.667,4.918-4.667s4.954,2.04,4.954,4.667c0,2.627-1.806,4.595-4.954,4.595
			S998.901,367.145,998.901,364.356z M1008.162,413.283h-8.723v-38.841h8.723V413.283z"/>
		<path fill="#581D70" d="M1121.435,364.356c0-2.79,1.899-4.667,4.918-4.667s4.954,2.04,4.954,4.667c0,2.627-1.806,4.595-4.954,4.595
			S1121.435,367.145,1121.435,364.356z M1130.697,413.283h-8.723v-38.841h8.723V413.283z"/>
		<path fill="#581D70" d="M1212.633,452.577c0-2.79,1.899-4.667,4.918-4.667s4.954,2.04,4.954,4.667c0,2.627-1.806,4.595-4.954,4.595
			S1212.633,455.366,1212.633,452.577z M1221.894,501.504h-8.723v-38.841h8.723V501.504z"/>
		<path fill="#581D70" d="M1074.429,550.167c5.988,0,8.759,2.92,9.979,4.308v-19.887h8.723v55.138h-7.897l-0.431-4.021
			c-1.244,1.508-4.59,4.738-10.446,4.738c-6.606,0-15.256-5.324-15.256-19.671C1059.101,556.425,1066.25,550.167,1074.429,550.167z
			 M1067.823,570.772c0,9.361,4.177,12.564,8.759,12.564c5.074,0,7.084-3.338,7.826-4.774v-16.584
			c-0.742-1.436-2.787-4.667-7.754-4.667C1071.312,557.311,1067.823,561.411,1067.823,570.772z"/>
		<path fill="#581D70" d="M1032.931,550.167c5.988,0,8.759,2.92,9.979,4.308v-19.887h8.723v55.138h-7.897l-0.431-4.021
			c-1.244,1.508-4.59,4.738-10.446,4.738c-6.606,0-15.256-5.324-15.256-19.671C1017.603,556.425,1024.752,550.167,1032.931,550.167z
			 M1026.325,570.772c0,9.361,4.177,12.564,8.759,12.564c5.074,0,7.084-3.338,7.826-4.774v-16.584
			c-0.742-1.436-2.787-4.667-7.754-4.667C1029.815,557.311,1026.325,561.411,1026.325,570.772z"/>
		<path fill="#581D70" d="M1119.336,590.443c-9.919,0-18.595-6.402-18.595-19.21c0-13.975,8.171-21.066,17.59-21.066
			s16.584,6.008,16.584,19.169v3.733h-25.379c0.63,6.356,4.808,10.41,10.303,10.41s8.591-3.338,9.764-4.846l4.702,4.487
			C1133.683,584.054,1129.255,590.443,1119.336,590.443z M1118.295,557.167c-5.295,0-8.295,5.008-8.615,9.513c0,0,12.654,0,16.62,0
			C1126.3,561.092,1123.59,557.167,1118.295,557.167z"/>
		<path fill="#581D70" d="M1127.879,502.222c-9.919,0-18.595-6.402-18.595-19.21c0-13.975,8.171-21.066,17.59-21.066
			s16.584,6.008,16.584,19.169v3.733h-25.379c0.63,6.356,4.808,10.41,10.303,10.41s8.591-3.338,9.764-4.846l4.702,4.487
			C1142.226,495.833,1137.798,502.222,1127.879,502.222z M1126.838,468.946c-5.295,0-8.295,5.008-8.615,9.513c0,0,12.654,0,16.62,0
			C1134.843,472.871,1132.133,468.946,1126.838,468.946z"/>
		<path fill="#581D70" d="M1307.761,590.443c-9.919,0-18.595-6.402-18.595-19.21c0-13.975,8.171-21.066,17.59-21.066
			s16.584,6.008,16.584,19.169v3.733h-25.379c0.63,6.356,4.808,10.41,10.303,10.41s8.591-3.338,9.764-4.846l4.702,4.487
			C1322.107,584.054,1317.68,590.443,1307.761,590.443z M1306.72,557.167c-5.295,0-8.295,5.008-8.615,9.513c0,0,12.654,0,16.62,0
			C1314.725,561.092,1312.015,557.167,1306.72,557.167z"/>
		<path fill="#581D70" d="M1388.602,590.443c-9.919,0-18.595-6.402-18.595-19.21c0-13.975,8.171-21.066,17.59-21.066
			s16.584,6.008,16.584,19.169v3.733h-25.379c0.63,6.356,4.808,10.41,10.303,10.41s8.591-3.338,9.764-4.846l4.702,4.487
			C1402.948,584.054,1398.521,590.443,1388.602,590.443z M1387.561,557.167c-5.295,0-8.295,5.008-8.615,9.513c0,0,12.654,0,16.62,0
			C1395.565,561.092,1392.855,557.167,1387.561,557.167z"/>
		<path fill="#581D70" d="M1149.777,550.885l0.251,4.487c1.364-1.651,4.81-5.205,11.308-5.205s12.349,2.925,12.349,14.466v25.092
			h-8.723v-25.164c0-5.053-2.181-7.251-6.821-7.251s-7.071,3.315-7.861,4.774v27.641h-8.723v-38.841H1149.777z"/>
		<path fill="#581D70" d="M945.09,446.366V466.9c1.364-1.651,4.559-4.954,11.057-4.954s12.349,2.925,12.349,14.466v25.092h-8.723
			V476.34c0-5.053-2.181-7.251-6.821-7.251s-7.071,3.315-7.861,4.774v27.641h-8.723v-55.138H945.09z"/>
		<path fill="#581D70" d="M1064.736,358.145v20.533c1.364-1.651,4.559-4.954,11.057-4.954s12.349,2.925,12.349,14.466v25.092h-8.723
			v-25.164c0-5.053-2.181-7.251-6.821-7.251s-7.071,3.315-7.861,4.774v27.641h-8.723v-55.138H1064.736z"/>
		<path fill="#581D70" d="M1001.036,501.504l-0.203-3.704c-1.364,1.651-4.859,4.422-11.356,4.422
			c-6.227,0-12.349-3.214-12.349-14.466v-25.092h8.723v25.164c0,5.053,1.815,7.251,6.821,7.251c4.641,0,7.494-2.945,7.861-4.774
			v-27.641h8.723v38.841H1001.036z"/>
		<path fill="#581D70" d="M1239.484,462.664l0.251,4.487c1.364-1.651,4.81-5.205,11.308-5.205s12.349,2.925,12.349,14.466v25.092
			h-8.723V476.34c0-5.053-2.181-7.251-6.821-7.251s-7.071,3.315-7.861,4.774v27.641h-8.723v-38.841H1239.484z"/>
		<path fill="#581D70" d="M1148.27,374.442l0.251,4.487c1.364-1.651,4.81-5.205,11.308-5.205s12.349,2.925,12.349,14.466v25.092
			h-8.723v-25.164c0-5.053-2.181-7.251-6.821-7.251s-7.071,3.315-7.861,4.774v27.641h-8.723v-38.841H1148.27z"/>
		<path fill="#581D70" d="M1419.042,551.244l0.251,4.487c1.364-1.651,4.81-5.205,11.308-5.205s12.349,2.925,12.349,14.466v25.092
			h-8.723v-25.164c0-5.053-2.181-7.251-6.821-7.251s-7.071,3.315-7.861,4.774v27.641h-8.723v-38.841H1419.042z"/>
		<path fill="#581D70" d="M1181.043,570.018c0-15.76,9.297-19.851,15.544-19.851s9.226,3.147,10.446,4.63l0.395-3.913h7.861v37.764
			c0,11.693-8.641,16.369-17.59,16.369s-13.677-5.253-14.538-6.425l4.128-5.241c1.437,1.699,4.689,4.774,9.908,4.774
			s9.369-2.867,9.369-9.261v-2.621c-1.221,1.364-4.12,4.2-10.052,4.2C1190,590.443,1181.043,585.778,1181.043,570.018z
			 M1189.73,570.772c0,7.903,3.52,12.564,9.01,12.564c4.593,0,7.06-3.159,7.826-4.523v-17.087c-0.767-1.364-2.691-4.415-7.754-4.415
			C1192.75,557.311,1189.73,562.869,1189.73,570.772z"/>
		<path fill="#581D70" d="M1270.75,481.797c0-15.76,9.297-19.851,15.544-19.851s9.226,3.147,10.446,4.63l0.395-3.913h7.861v37.764
			c0,11.693-8.641,16.369-17.59,16.369s-13.677-5.253-14.538-6.425l4.128-5.241c1.437,1.699,4.689,4.774,9.908,4.774
			s9.369-2.867,9.369-9.261v-2.621c-1.221,1.364-4.12,4.2-10.052,4.2C1279.707,502.222,1270.75,497.557,1270.75,481.797z
			 M1279.438,482.551c0,7.903,3.52,12.564,9.01,12.564c4.593,0,7.06-3.159,7.826-4.523v-17.087c-0.767-1.364-2.691-4.415-7.754-4.415
			C1282.457,469.089,1279.438,474.648,1279.438,482.551z"/>
		<path fill="#581D70" d="M1179.535,393.576c0-15.76,9.297-19.851,15.544-19.851s9.226,3.147,10.446,4.63l0.395-3.913h7.861v37.764
			c0,11.693-8.641,16.369-17.59,16.369s-13.677-5.253-14.538-6.425l4.128-5.241c1.437,1.699,4.689,4.774,9.908,4.774
			s9.369-2.867,9.369-9.261v-2.621c-1.221,1.364-4.12,4.2-10.052,4.2C1188.492,414.001,1179.535,409.336,1179.535,393.576z
			 M1188.223,394.33c0,7.903,3.52,12.564,9.01,12.564c4.593,0,7.06-3.159,7.826-4.523v-17.087c-0.767-1.364-2.691-4.415-7.754-4.415
			C1191.242,380.868,1188.223,386.427,1188.223,394.33z"/>
		<path fill="#581D70" d="M1244.581,558.854c-4.331-0.596-8.914-0.679-11.631,4.308v26.564h-8.723v-38.841h8.328l0.216,4.344
			c2.312-3.72,6.229-6.189,11.846-4.559C1244.594,551.883,1244.581,558.854,1244.581,558.854z"/>
		<path fill="#581D70" d="M1265.187,550.167c13.313,0,18.092,10.341,18.092,20.533c0,9.641-5.346,19.743-18.021,19.743
			s-18.092-10.051-18.092-19.743S1251.873,550.167,1265.187,550.167z M1255.889,570.7c0,6.308,2.627,12.779,9.369,12.779
			s9.334-6.337,9.334-12.779s-1.969-13.533-9.405-13.533S1255.889,564.392,1255.889,570.7z"/>
		<path fill="#581D70" d="M1364.119,570.7c0,16.725-9.283,19.743-15.076,19.743s-8.987-2.836-10.231-4.2v18.415h-8.723v-53.774h8.041
			l0.359,3.949c1.244-1.508,4.297-4.667,10.445-4.667S1364.119,553.976,1364.119,570.7z M1346.494,557.311
			c-4.911,0-6.964,3.051-7.683,4.415v17.231c1.188,2.302,3.653,4.523,7.754,4.523s8.867-2.837,8.867-12.779
			S1351.405,557.311,1346.494,557.311z"/>
	</g>
</svg>
